<svg version="1.1" id="Layer_1" xmlns="http://www.w3.org/2000/svg" xmlns:xlink="http://www.w3.org/1999/xlink" x="0px" y="0px"
	 width="100%" viewBox="0 0 1000 1000" enable-background="new 0 0 1000 1000" xml:space="preserve">
<path fill="#000000" opacity="1.000000" stroke="none" 
	d="
M467.000000,1001.000000 
	C311.333344,1001.000000 156.166672,1001.000000 1.000000,1001.000000 
	C1.000000,667.666687 1.000000,334.333344 1.000000,1.000000 
	C334.333344,1.000000 667.666687,1.000000 1001.000000,1.000000 
	C1001.000000,334.333344 1001.000000,667.666687 1001.000000,1001.000000 
	C823.166687,1001.000000 645.333313,1001.000000 467.000000,1001.000000 
M308.053314,696.455200 
	C309.950043,698.080444 311.827179,699.729187 313.746246,701.327576 
	C371.527008,749.449585 437.981110,770.372192 512.812622,764.015442 
	C559.114014,760.082214 601.422180,744.436462 639.653137,718.010681 
	C643.486084,715.361328 646.211731,715.501587 649.875977,718.126221 
	C660.573547,725.788635 671.324768,733.406067 682.393799,740.513306 
	C700.650513,752.235229 719.376770,763.272034 740.359436,769.405518 
	C747.906372,771.611511 756.023926,772.621887 763.903992,772.747986 
	C774.835999,772.923035 782.276306,765.240601 781.807373,754.355103 
	C781.446228,745.973572 780.745667,737.214539 777.965393,729.418884 
	C773.510376,716.927368 768.237732,704.480286 761.456665,693.121155 
	C750.116150,674.124207 737.546631,655.839539 724.975525,637.612915 
	C721.526123,632.611694 720.697144,628.686401 724.138550,623.692566 
	C726.017151,620.966492 727.440002,617.903564 728.883301,614.903564 
	C751.879150,567.104919 760.862854,516.769592 753.931152,464.195312 
	C742.934326,380.789520 701.629761,315.864716 631.123901,270.158447 
	C579.488770,236.685394 522.330505,224.519806 461.242493,229.891281 
	C430.367188,232.606140 400.959747,240.847610 373.030609,254.078613 
	C341.242828,269.137573 313.369934,289.561920 289.600067,315.691437 
	C275.037598,331.699493 262.389465,349.005615 252.156296,367.946777 
	C227.849869,412.936981 216.860703,460.956238 219.832336,512.226074 
	C221.527695,541.476440 227.578201,569.617065 238.383621,596.745239 
	C253.691986,635.178467 277.120605,668.025696 308.053314,696.455200 
z"/>
<path fill="#1D1D1B" opacity="1.000000" stroke="none" 
	d="
M307.796570,696.209473 
	C277.120605,668.025696 253.691986,635.178467 238.383621,596.745239 
	C227.578201,569.617065 221.527695,541.476440 219.832336,512.226074 
	C216.860703,460.956238 227.849869,412.936981 252.156296,367.946777 
	C262.389465,349.005615 275.037598,331.699493 289.600067,315.691437 
	C313.369934,289.561920 341.242828,269.137573 373.030609,254.078613 
	C400.959747,240.847610 430.367188,232.606140 461.242493,229.891281 
	C522.330505,224.519806 579.488770,236.685394 631.123901,270.158447 
	C701.629761,315.864716 742.934326,380.789520 753.931152,464.195312 
	C760.862854,516.769592 751.879150,567.104919 728.883301,614.903564 
	C727.440002,617.903564 726.017151,620.966492 724.138550,623.692566 
	C720.697144,628.686401 721.526123,632.611694 724.975525,637.612915 
	C737.546631,655.839539 750.116150,674.124207 761.456665,693.121155 
	C768.237732,704.480286 773.510376,716.927368 777.965393,729.418884 
	C780.745667,737.214539 781.446228,745.973572 781.807373,754.355103 
	C782.276306,765.240601 774.835999,772.923035 763.903992,772.747986 
	C756.023926,772.621887 747.906372,771.611511 740.359436,769.405518 
	C719.376770,763.272034 700.650513,752.235229 682.393799,740.513306 
	C671.324768,733.406067 660.573547,725.788635 649.875977,718.126221 
	C646.211731,715.501587 643.486084,715.361328 639.653137,718.010681 
	C601.422180,744.436462 559.114014,760.082214 512.812622,764.015442 
	C437.981110,770.372192 371.527008,749.449585 313.746246,701.327576 
	C311.827179,699.729187 309.950043,698.080444 307.796570,696.209473 
M626.916199,371.599884 
	C582.299194,324.022766 527.442566,303.466583 462.804596,311.485504 
	C412.334045,317.746765 371.175293,341.956818 339.897095,382.009460 
	C311.185547,418.775452 297.620056,460.985718 300.529968,507.519562 
	C303.547607,555.776428 322.469238,597.306030 357.476471,631.270752 
	C390.453217,663.265320 429.997772,680.513733 475.485352,683.782837 
	C509.948090,686.259521 542.766907,679.164734 573.559937,663.265869 
	C575.089844,662.476013 576.484741,661.424561 578.776123,659.963379 
	C572.557129,654.159180 566.919800,649.044983 561.443848,643.763428 
	C524.825134,608.444519 489.964691,571.512268 458.784790,531.235657 
	C438.660431,505.240082 419.659424,478.480774 405.052277,448.895569 
	C398.471741,435.567291 392.696472,421.890411 391.514862,406.803558 
	C391.160004,402.272369 391.371796,397.763611 394.059692,392.851654 
	C394.961761,394.606354 395.433533,395.447266 395.836700,396.319824 
	C402.040100,409.745514 407.159515,423.808197 414.625488,436.489685 
	C440.742462,480.851074 474.563721,519.260925 509.959167,556.297791 
	C536.231445,583.788391 564.215637,609.484192 593.876465,633.296570 
	C619.515015,653.879761 645.848145,673.573242 675.945862,687.266418 
	C685.357666,691.548279 695.689941,694.285034 705.886902,696.228577 
	C716.083923,698.171997 723.163940,691.420532 722.865723,681.076599 
	C722.704773,675.493713 722.187012,669.553345 720.123047,664.466980 
	C715.314331,652.615906 710.311218,640.696045 703.897278,629.670532 
	C680.984131,590.282959 651.966492,555.510132 620.896362,522.374023 
	C619.502808,520.887817 618.161865,519.352295 616.796387,517.839783 
	C617.131653,517.533508 617.466858,517.227295 617.802124,516.921082 
	C632.836182,531.469788 647.870300,546.018494 663.278809,560.929504 
	C663.900146,559.583984 664.713745,558.196777 665.204834,556.703552 
	C675.564819,525.202576 677.869324,493.171448 671.402161,460.584839 
	C664.758545,427.108612 649.883484,397.723022 626.916199,371.599884 
z"/>
<path fill="#000000" opacity="1.000000" stroke="none" 
	d="
M627.145752,371.870209 
	C649.883484,397.723022 664.758545,427.108612 671.402161,460.584839 
	C677.869324,493.171448 675.564819,525.202576 665.204834,556.703552 
	C664.713745,558.196777 663.900146,559.583984 663.278809,560.929504 
	C647.870300,546.018494 632.836182,531.469788 617.802124,516.921082 
	C617.466858,517.227295 617.131653,517.533508 616.796387,517.839783 
	C618.161865,519.352295 619.502808,520.887817 620.896362,522.374023 
	C651.966492,555.510132 680.984131,590.282959 703.897278,629.670532 
	C710.311218,640.696045 715.314331,652.615906 720.123047,664.466980 
	C722.187012,669.553345 722.704773,675.493713 722.865723,681.076599 
	C723.163940,691.420532 716.083923,698.171997 705.886902,696.228577 
	C695.689941,694.285034 685.357666,691.548279 675.945862,687.266418 
	C645.848145,673.573242 619.515015,653.879761 593.876465,633.296570 
	C564.215637,609.484192 536.231445,583.788391 509.959167,556.297791 
	C474.563721,519.260925 440.742462,480.851074 414.625488,436.489685 
	C407.159515,423.808197 402.040100,409.745514 395.836700,396.319824 
	C395.433533,395.447266 394.961761,394.606354 394.059692,392.851654 
	C391.371796,397.763611 391.160004,402.272369 391.514862,406.803558 
	C392.696472,421.890411 398.471741,435.567291 405.052277,448.895569 
	C419.659424,478.480774 438.660431,505.240082 458.784790,531.235657 
	C489.964691,571.512268 524.825134,608.444519 561.443848,643.763428 
	C566.919800,649.044983 572.557129,654.159180 578.776123,659.963379 
	C576.484741,661.424561 575.089844,662.476013 573.559937,663.265869 
	C542.766907,679.164734 509.948090,686.259521 475.485352,683.782837 
	C429.997772,680.513733 390.453217,663.265320 357.476471,631.270752 
	C322.469238,597.306030 303.547607,555.776428 300.529968,507.519562 
	C297.620056,460.985718 311.185547,418.775452 339.897095,382.009460 
	C371.175293,341.956818 412.334045,317.746765 462.804596,311.485504 
	C527.442566,303.466583 582.299194,324.022766 627.145752,371.870209 
M614.950134,514.452393 
	C614.950134,514.452393 615.024719,514.457275 614.950134,514.452393 
z"/>
<path fill="#1D1D1B" opacity="1.000000" stroke="none" 
	d="
M614.987427,514.454834 
	C615.024719,514.457275 614.950134,514.452393 614.987427,514.454834 
z"/>
</svg>